<svg xmlns="http://www.w3.org/2000/svg" version="1.1" xmlns:xlink="http://www.w3.org/1999/xlink" xmlns:svgjs="http://svgjs.com/svgjs" width="1440" height="560" preserveAspectRatio="none" viewBox="0 0 1440 560">
    <g mask="url(&quot;#SvgjsMask1069&quot;)" fill="none">
        <rect width="1440" height="560" x="0" y="0" fill="rgba(24, 24, 24, 1)"></rect>
        <path d="M0,541.185C96.86,515.458,173.026,452.462,264.575,411.687C377.248,361.504,532.765,377.43,599.938,273.983C666.378,171.665,617.158,33.777,586.677,-84.351C558.726,-192.672,495.819,-282.544,432.531,-374.79C361.174,-478.796,317.189,-634.878,193.176,-657.896C66.647,-681.381,-23.088,-532.111,-141.324,-481.304C-240.532,-438.674,-354.511,-445.446,-443.513,-384.306C-550.166,-311.041,-677.427,-228.122,-696.239,-100.104C-715.05,27.906,-591.347,127.834,-535.954,244.762C-481.538,359.625,-484.716,519.652,-373.493,581.167C-261.661,643.019,-123.514,573.992,0,541.185" fill="#101010"></path>
        <path d="M1440 1201.835C1558.733 1204.279 1607.348 1039.531 1711.466 982.409 1827.6770000000001 918.652 2011.778 966.136 2078.44 851.566 2143.458 739.822 2032.466 605.057 2004.462 478.843 1978.964 363.924 2004.449 226.265 1921.2269999999999 143.014 1838.34 60.09800000000001 1702.335 79.38400000000001 1586.575 60.81 1485.968 44.66700000000003 1388.1970000000001 24.458999999999946 1287.715 41.365999999999985 1177.188 59.96300000000002 1063.464 86.27699999999999 981.4159999999999 162.63400000000001 895.203 242.86700000000002 851.728 356.845 825.382 471.631 797.309 593.942 753.813 737.7139999999999 825.835 840.48 898.761 944.5350000000001 1066.108 906.942 1175.624 971.3779999999999 1278.467 1031.888 1320.701 1199.379 1440 1201.835" fill="#202020"></path>
    </g>
    <defs>
        <mask id="SvgjsMask1069">
            <rect width="1440" height="560" fill="#ffffff"></rect>
        </mask>
    </defs>
</svg>
